<?xml version="1.0" standalone="no"?>
<!DOCTYPE svg PUBLIC "-//W3C//DTD SVG 20010904//EN"
 "http://www.w3.org/TR/2001/REC-SVG-20010904/DTD/svg10.dtd">
<svg version="1.0" xmlns="http://www.w3.org/2000/svg"
 width="400.000000pt" height="400.000000pt" viewBox="0 0 400.000000 400.000000"
 preserveAspectRatio="xMidYMid meet">
<metadata>
Created by potrace 1.11, written by Peter Selinger 2001-2013
</metadata>
<g transform="translate(0.000000,400.000000) scale(0.100000,-0.100000)"
fill="#000000" stroke="none">
<path d="M1070 3370 c0 -6 -26 -10 -59 -10 -33 0 -63 -4 -66 -10 -3 -5 -28
-10 -56 -10 -27 0 -49 -4 -49 -10 0 -5 -20 -10 -45 -10 -25 0 -45 -4 -45 -10
0 -5 -20 -10 -45 -10 -25 0 -45 -4 -45 -10 0 -5 -18 -10 -39 -10 -22 0 -43 -4
-46 -10 -3 -5 -19 -10 -35 -10 -16 0 -32 -4 -35 -10 -3 -5 -22 -10 -41 -10
-19 0 -34 -4 -34 -10 0 -5 -18 -10 -40 -10 -22 0 -40 -4 -40 -10 0 -5 -13 -10
-29 -10 -17 0 -33 -4 -36 -10 -3 -5 -19 -10 -36 -10 -16 0 -29 -4 -29 -10 0
-5 -14 -10 -30 -10 -17 0 -38 -4 -48 -9 -9 -5 -35 -14 -57 -20 -22 -7 -50 -17
-62 -23 l-23 -11 0 -1244 c0 -1279 0 -1267 35 -1234 6 5 39 16 75 26 36 9 99
25 140 36 41 11 82 22 90 24 8 2 45 13 83 24 37 11 68 20 70 20 8 -1 68 15 97
26 19 7 57 16 83 19 58 9 72 12 114 25 17 5 34 7 37 4 3 -3 19 0 36 7 16 7 43
12 58 12 15 0 34 4 42 8 14 8 123 22 270 36 36 3 68 8 73 11 12 7 298 7 345
-1 40 -7 42 -10 42 -42 0 -35 12 -63 43 -98 9 -11 17 -24 17 -29 0 -10 25 -37
35 -37 4 0 26 -14 49 -30 54 -39 151 -54 246 -39 94 16 230 130 230 194 0 8 5
15 10 15 6 0 10 13 10 29 0 21 6 32 21 36 29 10 295 9 359 -1 30 -4 59 -7 65
-5 5 1 39 -3 75 -9 36 -6 83 -14 105 -16 22 -2 76 -11 120 -20 44 -9 91 -18
105 -20 14 -2 36 -7 50 -11 14 -3 32 -7 40 -9 50 -10 85 -16 87 -16 2 1 33 -8
70 -19 38 -11 81 -23 96 -25 16 -3 47 -12 70 -20 23 -8 58 -17 77 -20 19 -4
43 -10 53 -15 9 -5 17 -7 17 -4 0 3 13 -1 30 -10 16 -8 33 -15 37 -16 10 0 74
-17 131 -35 23 -8 47 -14 52 -14 6 0 10 450 10 1241 0 1335 3 1269 -49 1269
-12 0 -29 4 -39 9 -29 15 -87 31 -110 31 -12 0 -22 5 -22 10 0 6 -13 10 -30
10 -16 0 -30 5 -30 10 0 6 -15 10 -34 10 -19 0 -37 4 -40 9 -3 5 -22 12 -41
15 -19 3 -51 9 -70 12 -19 3 -38 10 -41 15 -3 5 -18 9 -34 9 -16 0 -32 5 -35
10 -3 6 -24 10 -46 10 -21 0 -39 5 -39 10 0 6 -20 10 -44 10 -25 0 -48 5 -51
10 -3 6 -22 10 -41 10 -19 0 -34 5 -34 10 0 6 -25 10 -55 10 -30 0 -55 5 -55
10 0 6 -26 10 -59 10 -33 0 -63 5 -66 10 -4 6 -133 10 -355 10 -222 0 -351 -4
-355 -10 -3 -5 -14 -10 -24 -10 -21 0 -71 -22 -71 -32 0 -5 -7 -8 -15 -8 -29
0 -92 -76 -108 -130 -3 -9 -10 -1 -20 22 -16 39 -78 108 -97 108 -5 0 -10 5
-10 10 0 6 -9 10 -20 10 -11 0 -20 5 -20 10 0 6 -11 10 -24 10 -14 0 -28 5
-31 10 -4 6 -135 10 -361 10 -229 0 -354 -4 -354 -10z m615 -143 c28 -8 57
-16 65 -18 8 -2 26 -14 40 -26 13 -13 28 -23 32 -23 5 0 8 -7 8 -15 0 -8 5
-15 10 -15 7 0 10 -358 10 -1055 0 -697 -3 -1055 -10 -1055 -5 0 -10 5 -10 10
0 6 -20 10 -45 10 -25 0 -45 5 -45 10 0 6 -33 10 -80 10 -50 0 -80 4 -80 11 0
16 -417 -4 -435 -22 -5 -5 -37 -9 -71 -9 -35 0 -66 -4 -69 -10 -3 -5 -31 -10
-61 -10 -30 0 -54 -4 -54 -10 0 -5 -18 -10 -39 -10 -22 0 -43 -4 -46 -10 -3
-5 -26 -10 -51 -10 -24 0 -44 -4 -44 -10 0 -5 -18 -10 -39 -10 -22 0 -43 -4
-46 -10 -3 -5 -26 -10 -51 -10 -24 0 -44 -4 -44 -10 0 -5 -15 -10 -34 -10 -19
0 -38 -4 -41 -10 -3 -5 -24 -10 -45 -10 -21 0 -42 -4 -45 -10 -3 -5 -19 -10
-35 -10 -16 0 -32 -4 -35 -10 -3 -5 -22 -10 -41 -10 -19 0 -34 -4 -34 -10 0
-5 -13 -10 -29 -10 -16 0 -32 -6 -34 -12 -3 -7 -6 473 -6 1068 l-1 1081 78 23
c42 13 82 24 87 26 6 1 37 11 70 22 56 18 81 25 144 37 13 2 49 12 80 21 31 9
69 18 84 20 16 2 33 7 40 11 10 6 64 19 121 28 16 2 44 9 62 15 19 6 38 9 42
6 5 -3 24 -1 43 5 19 5 52 12 73 15 21 2 42 7 46 9 4 2 40 7 81 10 41 3 97 9
124 14 71 13 300 5 360 -12z m980 12 c50 -6 108 -12 130 -14 22 -1 59 -6 82
-9 24 -4 45 -8 48 -8 2 0 28 -6 56 -13 29 -8 55 -12 59 -10 3 2 24 -1 46 -6
72 -18 132 -31 139 -30 2 0 22 -6 44 -14 22 -7 41 -11 44 -8 3 2 14 0 25 -6
11 -6 38 -14 59 -17 21 -3 43 -10 49 -15 6 -5 13 -7 16 -4 2 3 31 -4 64 -14
65 -21 144 -44 159 -46 6 0 45 -12 87 -25 l78 -25 -1 -1080 c0 -594 -3 -1074
-6 -1067 -2 6 -20 12 -39 12 -19 0 -34 5 -34 10 0 6 -13 10 -29 10 -17 0 -33
5 -36 10 -3 6 -22 10 -41 10 -19 0 -34 5 -34 10 0 6 -18 10 -40 10 -22 0 -40
5 -40 10 0 6 -18 10 -40 10 -22 0 -40 5 -40 10 0 6 -20 10 -44 10 -25 0 -48 4
-51 10 -3 5 -24 10 -46 10 -21 0 -39 5 -39 10 0 6 -20 10 -45 10 -25 0 -45 5
-45 10 0 6 -19 10 -43 10 -24 0 -47 4 -52 9 -10 9 -52 16 -165 27 -30 3 -59
10 -65 15 -5 5 -51 9 -102 9 -59 0 -93 4 -93 11 0 27 -430 -11 -512 -46 -17
-7 -18 47 -18 1049 0 697 3 1056 10 1056 6 0 10 6 10 13 1 17 66 61 115 77 80
27 248 35 380 19z"/>
<path d="M1280 3130 c0 -6 -29 -10 -68 -10 -37 0 -72 -4 -77 -9 -6 -5 -32 -12
-60 -15 -122 -14 -151 -18 -160 -27 -5 -5 -26 -9 -46 -9 -21 0 -41 -4 -44 -10
-3 -5 -24 -10 -46 -10 -21 0 -39 -4 -39 -10 0 -5 -22 -10 -50 -10 -27 0 -50
-4 -50 -10 0 -5 -13 -10 -29 -10 -17 0 -33 -4 -36 -10 -3 -5 -21 -10 -40 -10
-19 0 -37 -4 -40 -10 -3 -5 -19 -10 -36 -10 -16 0 -29 -4 -29 -9 0 -5 -15 -11
-32 -14 -80 -14 -104 -20 -115 -29 -10 -8 -13 -215 -13 -974 0 -878 1 -964 16
-964 9 0 44 7 78 16 33 9 68 18 76 19 8 2 30 8 48 14 17 5 32 8 32 6 0 -3 12
0 28 6 15 6 36 12 47 14 11 2 49 10 85 18 36 9 81 18 101 21 20 3 42 7 50 10
8 3 32 7 54 10 22 2 47 7 55 10 8 3 33 7 55 10 22 3 63 9 90 15 28 5 72 9 98
10 26 0 53 4 60 8 7 4 122 8 257 8 l245 0 0 975 0 975 -35 3 c-19 2 -39 8 -45
13 -13 13 -385 12 -385 -1z m290 -970 l0 -820 -135 0 c-83 0 -135 -4 -135 -10
0 -6 -41 -10 -104 -10 -59 0 -108 -4 -111 -10 -3 -5 -37 -10 -76 -10 -39 0
-69 -4 -69 -10 0 -5 -22 -10 -50 -10 -27 0 -50 -4 -50 -10 0 -5 -22 -10 -49
-10 -28 0 -53 -4 -56 -10 -3 -5 -26 -10 -51 -10 -24 0 -44 -4 -44 -10 0 -5
-20 -10 -44 -10 -25 0 -48 -4 -51 -10 -3 -5 -19 -10 -35 -10 -16 0 -32 -4 -35
-10 -3 -5 -16 -10 -28 -10 l-22 0 3 797 c2 620 5 799 15 805 13 8 97 34 137
42 14 2 50 12 80 22 30 9 64 18 75 20 11 1 49 10 85 19 36 10 76 17 90 17 14
0 32 4 40 8 8 4 37 11 64 14 27 4 53 9 56 11 10 6 126 24 200 30 35 3 66 8 69
10 2 3 55 5 118 5 l113 0 0 -820z"/>
<path d="M1330 2870 c-8 -5 -45 -10 -82 -10 -37 0 -70 -4 -73 -10 -3 -5 -30
-10 -60 -10 -30 0 -57 -4 -60 -10 -3 -5 -26 -10 -50 -10 -24 0 -47 -4 -50 -10
-3 -5 -26 -10 -50 -10 -24 0 -47 -4 -50 -10 -3 -5 -22 -10 -41 -10 -19 0 -34
-4 -34 -10 0 -5 -16 -10 -35 -10 -19 0 -35 -4 -35 -10 0 -5 -18 -10 -40 -10
-22 0 -40 -4 -40 -10 0 -5 -16 -10 -36 -10 -23 0 -42 -6 -50 -17 -11 -15 -13
-147 -14 -693 0 -371 4 -681 9 -689 7 -10 19 -12 47 -6 22 4 48 9 59 10 11 2
49 11 85 20 36 9 72 17 80 17 8 0 38 4 65 9 28 5 64 12 80 14 17 3 54 10 83
16 30 6 56 9 59 6 2 -3 18 -1 36 4 17 5 93 11 170 14 76 4 150 10 163 15 l24
10 0 715 0 715 -72 0 c-40 0 -80 -5 -88 -10z m-20 -720 l0 -550 -55 0 c-30 0
-55 -4 -55 -10 0 -6 -35 -10 -84 -10 -47 0 -88 -4 -91 -10 -3 -5 -31 -10 -61
-10 -30 0 -54 -4 -54 -10 0 -5 -25 -10 -55 -10 -30 0 -55 -4 -55 -10 0 -5 -22
-10 -49 -10 -30 0 -51 -5 -54 -12 -3 -7 -6 231 -6 530 -1 427 2 542 12 543 20
1 41 6 98 22 30 9 66 18 82 21 15 2 35 7 45 10 49 15 203 44 266 50 33 3 61 8
64 11 3 3 16 5 29 5 l23 0 0 -550z"/>
<path d="M1100 2570 c0 -5 -22 -10 -49 -10 -28 0 -53 -4 -56 -10 -3 -5 -24
-10 -46 -10 -21 0 -39 -4 -39 -10 0 -5 -18 -10 -40 -10 -22 0 -40 -4 -40 -10
0 -5 -9 -10 -20 -10 -20 0 -20 -5 -18 -432 l3 -433 25 1 c30 0 113 10 155 18
17 3 48 8 70 10 56 6 136 16 163 22 l22 4 0 445 0 445 -65 0 c-37 0 -65 -4
-65 -10z m-50 -456 c0 -237 -2 -274 -15 -274 -8 0 -15 -4 -15 -10 0 -5 -14
-10 -30 -10 l-30 0 2 272 c3 266 3 273 24 283 12 6 31 11 43 12 21 2 21 1 21
-273z"/>
<path d="M2345 3130 c-3 -5 -20 -10 -36 -10 -63 0 -59 62 -59 -987 0 -527 4
-963 8 -969 4 -7 29 -8 72 -4 76 8 434 5 448 -4 5 -3 41 -8 78 -11 38 -3 80
-8 94 -12 14 -3 36 -7 50 -9 14 -1 41 -6 60 -10 19 -4 44 -8 55 -10 45 -6 186
-34 227 -45 23 -6 52 -13 63 -14 11 -2 32 -8 48 -14 15 -6 27 -8 27 -6 0 2 11
0 26 -5 14 -6 39 -12 57 -15 18 -4 51 -13 75 -21 23 -7 54 -14 67 -14 l25 0 0
963 c0 736 -3 966 -12 975 -7 7 -27 12 -45 12 -18 0 -33 5 -33 10 0 6 -15 10
-34 10 -19 0 -38 5 -41 10 -3 6 -19 10 -36 10 -16 0 -29 5 -29 10 0 6 -15 10
-34 10 -19 0 -38 5 -41 10 -3 6 -19 10 -35 10 -16 0 -32 5 -35 10 -3 6 -26 10
-51 10 -24 0 -44 5 -44 10 0 6 -18 10 -40 10 -22 0 -40 5 -40 10 0 6 -18 10
-39 10 -22 0 -43 5 -46 10 -3 6 -28 10 -55 10 -27 0 -52 5 -55 10 -3 6 -28 10
-56 10 -27 0 -49 5 -49 10 0 6 -30 10 -70 10 -40 0 -70 4 -70 10 0 6 -71 10
-194 10 -119 0 -197 -4 -201 -10z m395 -164 c61 -6 182 -26 189 -31 4 -2 26
-6 51 -10 25 -4 48 -9 52 -11 4 -3 25 -7 46 -9 44 -4 197 -40 259 -61 24 -7
57 -16 74 -19 18 -3 40 -10 50 -16 11 -5 19 -7 19 -5 0 3 18 -1 39 -9 22 -7
42 -11 45 -8 3 3 7 -357 8 -800 l3 -807 -22 0 c-12 0 -25 5 -28 10 -3 6 -21
10 -40 10 -19 0 -37 5 -40 10 -3 6 -24 10 -46 10 -21 0 -39 5 -39 10 0 6 -22
10 -49 10 -28 0 -53 4 -56 10 -3 5 -26 10 -51 10 -24 0 -44 5 -44 10 0 6 -22
10 -50 10 -27 0 -50 5 -50 10 0 6 -30 10 -70 10 -40 0 -70 4 -70 10 0 6 -43
10 -110 10 -67 0 -110 4 -110 10 0 6 -52 10 -135 10 l-135 0 0 821 0 821 133
-5 c72 -3 152 -8 177 -11z"/>
<path d="M2510 2166 l0 -716 24 -10 c13 -5 82 -11 153 -14 115 -5 234 -17 297
-31 12 -2 39 -7 60 -10 21 -3 48 -7 60 -10 12 -2 38 -7 60 -10 21 -3 41 -7 45
-10 4 -2 30 -7 57 -11 27 -3 58 -11 69 -17 11 -6 21 -9 23 -8 1 1 23 -1 48 -5
34 -5 48 -3 55 7 5 8 9 318 9 689 -1 546 -3 678 -14 693 -8 11 -27 17 -50 17
-20 0 -36 5 -36 10 0 6 -15 10 -34 10 -19 0 -38 5 -41 10 -3 6 -22 10 -41 10
-19 0 -34 5 -34 10 0 6 -15 10 -34 10 -19 0 -38 5 -41 10 -3 6 -26 10 -51 10
-24 0 -44 5 -44 10 0 6 -22 10 -50 10 -27 0 -50 5 -50 10 0 6 -26 10 -58 10
-32 0 -62 4 -67 9 -9 9 -49 13 -237 27 l-78 6 0 -716z m305 518 c22 -2 54 -7
70 -10 17 -3 44 -8 60 -10 17 -3 57 -12 90 -21 33 -9 69 -17 80 -19 11 -2 45
-11 75 -19 30 -9 66 -17 80 -19 14 -2 28 -4 33 -5 4 0 7 -245 7 -543 0 -422
-3 -539 -12 -530 -7 7 -31 12 -54 12 -24 0 -46 5 -49 10 -3 6 -28 10 -56 10
-27 0 -49 4 -49 9 0 9 -62 18 -207 27 -46 3 -83 10 -83 15 0 5 -25 9 -55 9
l-55 0 0 551 0 552 43 -8 c23 -4 60 -9 82 -11z"/>
<path d="M2770 2141 c0 -446 0 -452 35 -457 6 -1 42 -5 80 -9 39 -4 122 -15
185 -26 63 -10 121 -19 128 -19 9 0 12 93 12 433 l0 432 -27 13 c-15 6 -39 12
-54 12 -15 0 -31 5 -34 10 -3 6 -21 10 -40 10 -19 0 -37 5 -40 10 -3 6 -26 10
-50 10 -24 0 -47 5 -50 10 -3 6 -37 10 -76 10 l-69 0 0 -439z m273 232 c4 -2
7 -128 7 -279 l0 -274 -23 0 c-13 0 -35 6 -50 13 l-27 12 0 273 0 274 43 -7
c23 -4 45 -9 50 -12z"/>
</g>
</svg>
