<?xml version="1.0" standalone="no"?>
<!DOCTYPE svg PUBLIC "-//W3C//DTD SVG 20010904//EN"
 "http://www.w3.org/TR/2001/REC-SVG-20010904/DTD/svg10.dtd">
<svg version="1.0" xmlns="http://www.w3.org/2000/svg"
 width="400.000000pt" height="400.000000pt" viewBox="0 0 400.000000 400.000000"
 preserveAspectRatio="xMidYMid meet">
<metadata>
Created by potrace 1.11, written by Peter Selinger 2001-2013
</metadata>
<g transform="translate(0.000000,400.000000) scale(0.100000,-0.100000)"
fill="#000000" stroke="none">
<path d="M1165 3369 c-3 -4 -13 -5 -22 -2 -12 5 -14 3 -8 -8 7 -12 6 -12 -7
-1 -9 7 -19 9 -22 4 -3 -5 -18 -8 -33 -7 -15 1 -34 -2 -40 -8 -9 -6 -13 -5
-13 4 0 12 -2 12 -9 0 -5 -7 -13 -11 -19 -7 -6 3 -13 2 -17 -3 -3 -6 -21 -8
-40 -7 -19 2 -35 0 -35 -4 0 -4 -10 -6 -22 -6 -13 1 -27 -1 -33 -5 -5 -4 -23
-10 -40 -13 -70 -13 -90 -20 -97 -30 -5 -8 -8 -7 -8 2 0 9 -5 10 -18 3 -10 -5
-27 -8 -38 -7 -10 2 -22 -1 -25 -6 -4 -6 -24 -11 -46 -11 -24 -1 -39 -6 -36
-13 2 -6 -12 -10 -36 -9 -22 1 -37 -3 -35 -7 3 -4 2 -8 -3 -9 -30 -3 -69 -11
-82 -18 -9 -4 -23 -7 -31 -6 -8 0 -18 -4 -22 -10 -5 -6 -8 -4 -8 4 0 12 -2 12
-12 -1 -7 -9 -26 -19 -43 -22 -37 -8 -60 -14 -60 -16 0 -1 -7 -3 -15 -5 -8 -1
-35 -9 -60 -16 -56 -16 -58 -16 -71 -18 -5 0 -8 -5 -5 -10 3 -5 0 -9 -7 -8
-48 1 -45 92 -45 -1228 0 -692 4 -1228 9 -1231 5 -3 15 -2 21 3 7 4 22 9 33
11 11 2 25 5 30 6 6 2 24 6 40 10 17 4 39 12 50 17 11 5 31 11 45 13 14 2 24
9 22 17 -3 10 0 10 12 -1 10 -7 16 -8 16 -2 0 6 9 9 20 7 11 -2 20 -1 20 3 0
8 22 12 68 15 12 0 22 5 22 10 0 4 5 5 10 2 6 -3 10 -2 10 2 0 5 10 9 23 10
29 0 51 6 57 15 3 4 20 8 38 10 18 1 32 5 32 9 0 4 8 5 19 2 10 -3 22 0 25 6
4 6 22 11 41 11 19 0 36 4 39 8 5 8 20 10 94 15 12 0 22 4 22 7 0 3 12 7 28 9
42 4 67 8 67 10 0 3 32 10 66 15 14 1 32 7 39 11 9 6 11 4 5 -5 -6 -10 -4 -11
6 -4 16 10 27 12 83 15 23 1 47 7 55 13 12 9 13 8 6 -3 -6 -10 -4 -12 5 -6 11
7 66 15 135 19 17 0 36 5 43 9 6 5 12 4 12 -2 0 -10 32 -7 52 5 7 5 8 3 3 -7
-8 -12 -6 -12 8 0 14 11 17 11 17 0 0 -9 3 -10 8 -4 9 13 42 16 42 4 0 -6 9
-5 20 1 15 8 20 8 20 -1 0 -8 4 -8 15 1 8 7 15 8 15 3 0 -5 19 -9 43 -8 23 0
45 -4 49 -10 5 -6 8 -6 8 2 0 7 7 10 15 7 8 -4 13 -10 10 -14 -3 -5 -1 -12 5
-15 8 -5 7 -11 -1 -21 -7 -9 -8 -14 -1 -14 6 0 13 -13 17 -30 4 -16 14 -34 23
-39 9 -5 16 -13 16 -18 -1 -4 2 -7 8 -5 5 1 6 -2 3 -8 -4 -6 2 -19 13 -28 11
-9 29 -24 39 -33 25 -20 99 -50 107 -42 3 4 6 2 6 -4 0 -6 20 -10 45 -9 25 1
45 -3 45 -9 0 -7 3 -7 8 0 4 6 16 11 27 12 45 5 82 17 108 35 15 11 27 17 27
15 0 -3 12 7 28 21 36 35 90 108 71 97 -8 -5 -6 1 5 13 10 12 16 28 13 37 -4
8 -2 15 4 15 5 0 9 8 7 17 -2 10 3 17 10 15 6 -1 12 2 12 6 0 5 20 8 45 7 25
-1 45 2 45 7 0 5 9 4 19 -2 14 -7 22 -7 26 0 4 6 12 7 18 3 16 -10 47 -11 42
-2 -3 4 6 6 20 5 14 0 25 -5 25 -10 0 -5 7 -3 15 4 8 7 15 9 15 4 0 -5 35 -10
77 -11 45 -1 79 -7 81 -13 2 -6 10 -3 19 7 8 10 12 13 9 7 -3 -7 3 -14 14 -17
11 -3 20 -1 20 5 0 5 6 6 13 1 6 -4 29 -9 50 -10 21 -1 44 -6 51 -12 7 -6 17
-6 26 -1 8 5 21 5 32 -1 10 -5 34 -10 53 -11 19 -1 35 -4 35 -8 0 -3 17 -7 37
-8 21 -2 41 -8 45 -15 6 -9 8 -8 8 3 0 10 3 11 8 4 4 -6 17 -10 30 -9 12 1 22
-3 22 -9 0 -6 5 -4 10 4 8 12 10 12 11 -5 0 -11 3 -14 6 -7 2 6 9 9 14 6 6 -3
25 -8 42 -10 18 -3 39 -8 47 -11 14 -6 39 -12 68 -15 6 -1 12 -5 12 -10 0 -5
4 -7 9 -4 5 4 22 1 38 -6 15 -6 41 -13 58 -15 16 -3 37 -9 46 -14 10 -5 29 -9
43 -9 14 0 26 -4 26 -9 0 -6 9 -8 20 -6 11 2 20 0 20 -5 0 -4 9 -6 20 -3 12 3
20 0 20 -7 0 -7 7 -10 15 -7 8 4 17 2 20 -4 4 -5 11 -7 16 -4 5 4 9 2 9 -3 0
-9 8 -11 55 -14 14 -1 25 -6 25 -11 0 -5 9 -7 20 -4 11 3 20 1 20 -5 0 -5 5
-6 10 -3 6 3 10 2 10 -3 0 -5 11 -9 24 -9 l24 0 1 1206 c0 663 -2 1218 -5
1232 -3 14 -10 26 -17 27 -7 0 -21 3 -32 5 -11 3 -27 7 -35 9 -8 1 -18 6 -21
11 -3 4 -20 9 -37 10 -18 1 -32 5 -32 10 0 4 -8 7 -17 7 -18 0 -85 22 -93 30
-3 3 -14 6 -25 7 -24 3 -60 11 -60 13 0 2 -36 10 -57 12 -10 1 -18 7 -18 13 0
5 -5 3 -10 -5 -9 -13 -10 -13 -10 1 0 11 -10 15 -32 15 -19 -1 -32 4 -31 10 1
7 -10 10 -27 8 -17 -2 -30 1 -30 6 0 6 -5 10 -11 10 -5 0 -7 -5 -3 -11 3 -6
-4 -5 -17 3 -13 8 -34 14 -46 13 -13 -1 -23 1 -23 6 0 5 -7 5 -17 2 -10 -4
-14 -2 -9 5 4 7 -1 9 -15 7 -13 -3 -29 1 -38 8 -12 10 -13 9 -6 -3 7 -13 6
-13 -7 -2 -9 7 -32 14 -51 15 -19 1 -33 5 -30 10 4 6 -50 12 -89 9 -10 -1 -18
2 -18 6 0 4 -10 9 -22 10 -74 5 -94 8 -107 16 -11 7 -12 6 -6 -5 7 -11 5 -11
-10 1 -15 13 -66 15 -314 15 -163 0 -305 -4 -316 -9 -11 -5 -29 -11 -39 -13
-11 -2 -25 -8 -33 -14 -7 -6 -13 -8 -13 -4 0 3 -12 -3 -26 -14 -15 -11 -31
-18 -37 -14 -5 3 -7 1 -4 -4 4 -6 -4 -18 -18 -27 -14 -9 -25 -23 -25 -32 0 -8
-4 -12 -10 -9 -6 4 -10 -6 -10 -22 0 -22 -2 -25 -10 -13 -7 11 -10 7 -10 -17
0 -24 -4 -31 -18 -30 -10 0 -18 10 -18 22 -3 40 -76 131 -95 119 -7 -4 -9 -3
-6 3 7 11 -64 51 -98 56 -11 1 -27 7 -35 12 -19 12 -578 16 -585 4z m249 -104
c-5 -13 -2 -14 21 -5 34 13 38 13 29 -2 -5 -7 -3 -8 7 -2 8 5 25 10 39 11 20
3 22 1 10 -7 -8 -5 -10 -10 -4 -10 6 0 14 3 18 7 8 8 46 12 46 4 0 -3 19 -7
43 -8 78 -4 87 -5 87 -14 0 -5 3 -8 8 -7 13 4 82 -23 82 -33 0 -5 3 -8 8 -6 4
1 9 -2 11 -8 2 -5 12 -16 23 -24 11 -7 17 -19 14 -27 -3 -7 -1 -16 4 -19 6 -4
10 -11 10 -16 0 -6 -5 -7 -11 -3 -8 4 -8 1 -1 -12 5 -11 8 -30 6 -43 -3 -14 1
-28 8 -33 7 -4 8 -8 3 -8 -14 0 -15 -223 -1 -232 8 -5 8 -8 0 -8 -15 0 -17
-70 -1 -70 8 0 8 -3 2 -8 -15 -10 -15 -225 -1 -234 7 -5 7 -8 1 -8 -14 0 -15
-230 -1 -230 8 0 8 -3 1 -8 -15 -10 -15 -225 -1 -234 7 -5 7 -8 1 -8 -14 0
-15 -230 -1 -230 8 0 8 -3 1 -8 -15 -10 -15 -225 -1 -234 7 -5 7 -8 1 -8 -14
0 -15 -223 -1 -232 8 -6 8 -8 0 -8 -7 0 -10 -38 -9 -114 1 -63 -2 -113 -7
-110 -4 3 -8 -1 -9 -8 0 -9 -2 -10 -5 -1 -3 7 -12 9 -20 6 -8 -3 -14 0 -14 6
0 6 -5 11 -11 11 -5 0 -7 -5 -3 -11 3 -6 -4 -5 -17 3 -13 8 -34 14 -46 13 -13
-1 -23 2 -23 7 0 5 -5 6 -10 3 -5 -3 -10 0 -11 7 0 9 -2 10 -5 1 -4 -8 -13 -9
-27 -5 -12 4 -46 7 -74 7 -29 -1 -53 3 -53 7 0 4 -5 8 -11 8 -5 0 -8 -3 -6 -7
3 -5 -6 -9 -19 -9 -13 -1 -24 2 -24 8 0 5 -4 6 -10 3 -8 -5 -50 -8 -252 -19
-16 0 -28 -3 -28 -6 0 -3 -20 -6 -45 -5 -25 0 -45 -4 -45 -9 0 -4 -8 -2 -17 5
-9 8 -14 9 -10 3 4 -7 0 -15 -9 -18 -10 -4 -13 -2 -8 6 5 7 3 8 -7 2 -13 -8
-52 -15 -91 -15 -10 0 -18 -4 -18 -8 0 -4 -15 -7 -32 -6 -18 0 -36 -4 -40 -9
-3 -5 -26 -11 -50 -13 -64 -5 -68 -6 -68 -13 0 -3 -10 -6 -22 -7 -23 0 -97
-15 -118 -23 -3 -1 -9 -3 -15 -5 -5 -1 -12 -3 -15 -4 -3 -2 -20 -4 -38 -6 -18
-2 -40 -9 -48 -15 -10 -9 -14 -9 -14 -1 0 8 -6 8 -18 2 -29 -16 -56 -24 -82
-25 -14 -1 -31 -8 -38 -16 -10 -11 -12 -11 -6 -1 5 10 3 12 -7 5 -8 -4 -23
-10 -34 -11 -10 -2 -23 -9 -27 -16 -6 -9 -8 -9 -8 2 0 11 -3 11 -15 1 -8 -7
-15 -9 -15 -4 0 5 -4 3 -8 -4 -5 -7 -24 -14 -43 -16 l-35 -3 0 48 c0 31 4 46
10 41 7 -3 7 0 0 9 -6 8 -10 25 -8 38 3 13 -1 31 -8 39 -8 9 -8 13 -2 9 8 -5
12 6 12 33 1 24 -4 40 -11 40 -9 0 -9 2 0 8 13 8 12 29 -1 51 -6 9 -5 12 2 7
7 -4 10 15 8 59 -2 41 1 65 8 65 8 0 8 3 0 8 -13 9 -13 104 1 114 6 5 5 8 -2
8 -9 0 -11 11 -7 36 4 25 1 39 -8 45 -7 5 -8 9 -2 9 15 0 17 70 1 70 -9 0 -9
2 0 8 13 8 12 29 -1 51 -6 9 -5 12 2 7 7 -4 10 15 8 59 -2 41 1 65 8 65 8 0 8
3 0 8 -13 9 -13 104 1 114 6 5 5 8 -2 8 -9 0 -11 11 -7 36 4 25 1 39 -8 45 -7
5 -8 9 -2 9 15 0 17 70 1 70 -9 0 -9 2 0 8 13 8 12 29 -1 51 -6 9 -5 12 2 7 7
-4 10 15 8 59 -2 41 1 65 8 65 8 0 8 3 0 8 -13 9 -13 104 1 114 6 5 5 8 -2 8
-9 0 -11 11 -7 36 4 25 1 39 -8 45 -7 5 -8 9 -2 9 15 0 17 70 1 70 -9 0 -9 2
0 8 13 8 12 29 -1 51 -6 9 -5 12 2 7 7 -4 10 15 8 59 -2 41 1 65 8 65 8 0 8 3
0 8 -13 9 -13 104 1 114 6 5 5 8 -2 8 -9 0 -11 12 -7 40 4 29 2 40 -8 40 -11
0 -11 2 0 9 7 4 12 12 11 17 -1 5 -1 21 0 36 1 21 5 26 21 23 11 -2 20 0 20 6
0 5 7 9 15 9 9 0 34 9 55 19 25 12 40 15 40 8 0 -8 4 -7 12 1 7 7 22 12 34 12
13 0 26 5 29 11 4 6 13 8 20 5 7 -2 21 1 31 8 11 7 27 12 37 10 9 -1 17 1 17
6 0 5 8 7 18 5 9 -1 22 2 29 7 7 5 17 7 23 3 5 -3 10 -1 10 5 0 6 4 9 9 5 5
-3 13 0 17 6 4 8 9 7 15 -2 7 -11 9 -11 9 -1 0 7 5 10 10 7 6 -3 10 -2 10 4 0
6 7 8 15 5 8 -4 21 -2 28 4 6 5 19 9 27 9 8 1 29 4 45 8 17 3 36 7 43 7 6 1
12 4 12 8 0 4 15 7 32 8 18 0 34 6 37 13 2 8 6 7 12 -2 6 -10 9 -10 9 -2 0 7
7 10 15 7 8 -4 15 -1 15 6 0 10 3 10 14 1 10 -9 16 -9 21 -1 4 6 13 9 21 6 8
-3 14 0 14 7 0 8 3 8 9 -2 5 -8 11 -9 15 -3 3 6 18 9 32 7 15 -1 28 3 31 12 5
12 7 12 14 1 5 -7 9 -8 9 -3 0 6 19 10 43 9 23 0 47 3 53 8 6 4 25 6 42 4 19
-2 32 1 33 8 0 7 3 6 6 -2 2 -6 9 -9 15 -6 6 4 29 8 52 9 22 2 42 4 44 5 1 1
6 3 11 4 5 0 13 4 17 9 11 11 14 8 8 -8z m1036 -7 c0 -8 3 -9 8 -3 10 15 55
18 46 3 -5 -7 -3 -8 7 -2 8 5 25 10 39 11 20 3 22 1 10 -7 -9 -6 -10 -10 -3
-10 6 0 15 5 18 10 5 8 12 7 23 -2 12 -10 14 -10 8 0 -4 7 -1 12 8 12 9 0 16
-3 16 -8 0 -4 36 -7 79 -7 43 0 77 -3 75 -7 -2 -4 0 -9 5 -12 5 -4 12 -2 16 4
4 6 12 7 18 3 7 -4 31 -8 54 -9 23 0 48 -5 55 -11 7 -5 28 -9 46 -9 17 1 32
-3 32 -7 0 -5 5 -5 10 -2 6 4 18 1 27 -7 15 -11 16 -11 10 7 -6 17 -5 18 5 4
7 -9 23 -15 36 -14 13 1 25 -2 28 -6 2 -4 13 -6 24 -4 11 2 20 0 20 -4 0 -4 6
-8 13 -9 40 -3 57 -7 57 -13 0 -4 11 -6 25 -4 14 1 25 -1 25 -6 0 -5 7 -5 17
-2 9 4 14 2 11 -3 -4 -5 12 -10 34 -11 23 0 44 -6 48 -13 4 -6 10 -11 14 -11
25 4 56 0 53 -6 -3 -5 13 -8 35 -9 22 -1 43 -6 47 -12 4 -6 15 -11 26 -11 40
-1 55 -4 55 -13 0 -4 14 -8 30 -8 17 0 30 -4 30 -8 0 -4 12 -9 28 -10 25 -2
51 -11 96 -34 13 -7 16 -6 11 2 -4 7 1 7 14 -2 12 -7 21 -17 22 -23 6 -56 3
-115 -6 -115 -7 0 -7 -3 1 -8 13 -9 13 -104 -1 -114 -7 -5 -6 -8 1 -8 13 0 13
-110 -1 -110 -6 0 -6 -3 1 -8 13 -9 13 -104 -1 -114 -7 -5 -6 -8 1 -8 13 0 13
-110 -1 -110 -6 0 -6 -3 1 -8 13 -9 13 -104 -1 -114 -7 -5 -6 -8 1 -8 13 0 13
-110 -1 -110 -6 0 -6 -3 1 -8 13 -9 13 -104 -1 -114 -7 -5 -6 -8 1 -8 13 0 13
-110 -1 -110 -6 0 -6 -3 1 -8 13 -9 13 -104 -1 -114 -7 -5 -6 -8 1 -8 13 0 13
-110 -1 -110 -6 0 -6 -3 1 -8 13 -9 13 -104 -1 -114 -6 -5 -6 -8 1 -8 8 0 11
-20 8 -60 -2 -42 1 -60 9 -60 8 0 8 -3 2 -8 -16 -10 -17 -64 -3 -74 8 -4 9 -8
2 -8 -15 0 -17 -70 -1 -70 8 0 8 -3 2 -8 -16 -10 -17 -64 -3 -74 8 -4 9 -8 2
-8 -15 0 -17 -70 -1 -70 8 0 8 -3 2 -8 -15 -10 -16 -53 -2 -71 9 -11 9 -13 0
-8 -15 10 -15 -52 1 -72 8 -11 8 -13 -1 -8 -9 6 -12 -6 -10 -46 3 -61 -10 -82
-38 -61 -10 7 -21 11 -26 9 -4 -3 -10 -1 -14 4 -3 6 -12 8 -20 4 -8 -3 -15 -1
-15 4 0 7 -93 32 -127 34 -5 0 -13 5 -19 10 -6 5 -28 10 -50 11 -21 2 -41 6
-44 10 -3 4 -21 10 -39 13 -19 3 -37 8 -41 10 -4 2 -25 7 -47 9 -22 3 -51 9
-64 14 -13 4 -31 8 -39 7 -8 0 -21 6 -29 13 -12 11 -15 11 -22 0 -6 -8 -9 -9
-9 -1 0 6 -8 10 -17 8 -10 -1 -25 1 -34 6 -9 4 -36 10 -60 12 -24 2 -43 7 -42
13 1 5 -20 10 -45 11 -26 0 -69 5 -97 9 -27 4 -62 8 -77 8 -16 0 -28 3 -28 6
0 3 -15 5 -32 5 -18 -1 -36 4 -40 10 -5 6 -11 5 -18 -5 -5 -8 -10 -10 -10 -5
0 6 -25 10 -55 10 -30 0 -55 3 -55 8 0 4 -6 5 -12 1 -19 -12 -48 -12 -48 0 0
6 -5 4 -10 -4 -8 -12 -10 -12 -10 -1 0 9 -4 10 -12 5 -7 -5 -48 -9 -90 -9 -43
0 -78 -3 -78 -7 0 -4 -12 -3 -26 2 -16 7 -23 7 -19 0 7 -11 6 -11 -44 -15 -18
-1 -37 -8 -42 -16 -7 -12 -9 -11 -9 1 0 9 -3 11 -8 5 -4 -5 -21 -11 -37 -13
l-31 -3 1 208 c1 114 -3 216 -8 227 -5 11 -5 16 0 13 5 -3 9 33 10 84 0 58 -4
89 -11 89 -7 0 -8 3 -1 8 15 10 15 225 1 234 -8 5 -7 8 1 8 14 0 13 26 -1 49
-6 9 -5 12 1 8 13 -8 12 131 -1 152 -6 9 -5 12 1 8 5 -3 9 29 10 84 0 58 -4
89 -11 89 -7 0 -8 3 -1 8 15 10 15 225 1 234 -8 5 -7 8 1 8 14 0 13 26 -1 49
-6 9 -5 12 1 8 13 -8 12 131 -1 152 -6 9 -5 12 1 8 14 -9 13 166 -1 175 -8 5
-8 8 0 8 6 0 10 32 9 88 -1 110 7 139 50 179 19 18 35 29 35 26 0 -3 7 0 15 7
8 6 18 9 24 6 5 -3 12 2 15 11 6 15 8 15 16 3 6 -8 10 -10 10 -5 0 12 21 16
92 18 25 1 44 5 41 10 -2 4 1 7 6 7 6 0 11 -6 11 -12z"/>
<path d="M1382 3122 c-7 -9 -10 -12 -8 -6 4 7 -4 12 -19 12 -14 0 -25 -6 -25
-12 0 -6 -5 -4 -10 4 -5 8 -10 10 -10 4 0 -6 -21 -10 -50 -10 -27 1 -50 -2
-50 -6 0 -5 -5 -8 -11 -8 -5 0 -7 6 -4 13 4 6 -1 3 -9 -7 -10 -13 -16 -15 -16
-7 0 9 -4 10 -12 4 -7 -6 -25 -10 -40 -9 -16 1 -28 -2 -28 -7 0 -4 -4 -6 -9
-3 -5 4 -12 0 -14 -6 -4 -10 -6 -10 -6 0 -1 8 -6 10 -13 6 -7 -4 -24 -8 -39
-9 -15 -1 -35 -8 -45 -16 -16 -13 -17 -12 -10 5 6 18 5 19 -11 4 -10 -8 -26
-14 -35 -13 -10 2 -18 0 -18 -4 0 -4 -8 -7 -17 -8 -27 -2 -86 -13 -103 -20 -8
-3 -28 -7 -44 -9 -17 -2 -33 -9 -37 -15 -5 -8 -8 -8 -14 0 -5 9 -10 9 -21 0
-8 -6 -14 -8 -14 -3 0 5 -5 2 -10 -6 -9 -13 -10 -13 -10 0 0 12 -2 12 -9 2 -8
-13 -28 -20 -64 -21 -10 -1 -16 -5 -13 -9 2 -4 -13 -8 -34 -7 -21 1 -36 -3
-34 -7 3 -4 2 -8 -3 -9 -4 0 -17 -3 -28 -5 -11 -2 -29 -6 -40 -7 -12 -2 -26
-6 -32 -10 -6 -4 -23 -8 -36 -9 -14 -1 -23 -6 -21 -10 3 -4 -1 -8 -9 -8 -16 0
-18 -75 -2 -99 5 -9 4 -12 -2 -8 -12 8 -11 -212 1 -232 6 -8 5 -12 0 -8 -6 3
-10 -31 -10 -83 -1 -58 3 -87 9 -83 6 4 7 1 2 -8 -15 -23 -17 -82 -4 -73 8 5
9 3 4 -7 -15 -23 -17 -82 -4 -73 8 5 9 3 4 -7 -5 -7 -10 -28 -12 -47 -3 -25
-1 -32 9 -26 10 6 10 4 3 -7 -12 -17 -13 -39 -1 -58 6 -9 5 -12 -1 -8 -12 8
-11 -212 1 -232 6 -9 5 -12 -1 -8 -12 8 -11 -212 1 -232 6 -8 5 -12 0 -8 -6 3
-10 -31 -10 -83 -1 -58 3 -87 9 -83 6 4 7 1 2 -8 -15 -23 -17 -82 -4 -73 8 5
9 3 4 -7 -15 -23 -17 -82 -4 -73 8 5 9 3 4 -7 -15 -23 -17 -82 -4 -73 8 5 9 3
3 -7 -4 -8 -8 -53 -9 -100 0 -83 1 -86 20 -79 11 4 22 8 25 8 3 0 17 3 31 7
27 7 59 13 72 14 5 1 6 5 3 9 -2 4 11 7 30 7 19 -1 34 1 34 5 0 3 10 7 22 8
13 1 32 4 43 6 11 3 26 5 33 5 7 1 11 4 8 9 -2 4 11 7 30 6 19 -1 34 1 34 6 0
4 10 6 23 6 12 -1 28 2 35 7 6 5 12 6 12 2 0 -4 8 -1 17 6 14 12 16 12 8 0 -6
-11 -5 -12 6 -5 18 11 35 15 79 17 19 1 38 5 41 10 3 4 28 9 56 10 28 1 49 5
46 10 -2 4 0 7 6 7 5 0 12 -6 14 -12 4 -9 6 -8 6 2 1 11 12 15 43 14 24 -1 49
3 56 9 8 6 12 5 12 -4 0 -9 3 -10 8 -4 7 10 69 18 139 18 18 0 31 3 28 7 -6 9
27 6 44 -5 10 -5 12 -4 7 3 -10 16 7 15 23 0 8 -8 11 -8 8 -2 -4 7 3 14 18 16
15 3 22 1 18 -5 -4 -7 1 -8 12 -3 11 4 22 2 27 -6 6 -10 8 -9 8 3 0 14 6 16
35 9 24 -5 35 -4 35 4 0 6 5 4 10 -4 7 -11 10 -11 10 -2 0 9 5 10 19 3 10 -6
21 -7 25 -4 3 3 6 1 6 -7 0 -10 3 -10 16 1 10 8 18 9 22 2 6 -8 44 -10 83 -4
3 1 3 24 2 52 -3 40 -1 49 9 43 7 -4 5 2 -5 13 -10 12 -14 23 -10 26 10 6 10
48 0 64 -4 7 -3 14 2 18 7 3 7 15 1 30 -6 15 -6 27 0 30 6 4 10 11 10 16 0 6
-4 8 -8 5 -5 -3 -9 1 -9 9 0 8 4 12 9 9 8 -5 4 26 -7 63 -2 7 0 15 5 18 6 4
10 14 10 23 0 15 -2 15 -10 2 -6 -9 -10 -10 -10 -3 0 6 5 15 10 18 6 3 10 11
10 16 0 6 -4 8 -8 5 -5 -3 -9 1 -9 9 0 8 4 12 9 9 4 -3 5 10 2 28 -8 43 -8 40
1 61 4 10 2 23 -4 31 -7 8 -8 17 -4 19 10 6 10 48 0 64 -4 7 -3 14 2 17 6 4 6
18 1 36 -6 20 -5 28 1 24 9 -5 6 23 -6 63 -2 7 0 15 5 18 6 4 10 11 10 16 0 6
-4 8 -8 5 -5 -3 -9 1 -9 9 0 8 4 12 9 9 8 -5 4 26 -7 63 -2 7 0 15 5 18 6 4
10 11 10 16 0 6 -4 8 -8 5 -5 -3 -9 1 -9 9 0 8 4 12 8 9 4 -2 5 12 2 32 -5 30
-3 36 8 29 8 -5 6 1 -4 12 -10 12 -14 23 -10 26 10 6 10 48 0 64 -4 7 -3 14 2
18 7 3 7 15 1 30 -6 15 -6 27 0 30 6 4 10 11 10 16 0 6 -4 8 -8 5 -5 -3 -9 1
-9 9 0 8 4 12 9 9 8 -5 4 26 -7 63 -2 7 0 15 5 18 6 4 10 14 10 23 0 15 -2 15
-10 2 -6 -9 -10 -10 -10 -3 0 6 5 15 10 18 6 3 10 11 10 16 0 6 -4 8 -8 5 -5
-3 -9 1 -9 9 0 8 4 12 9 9 8 -5 4 26 -7 63 -2 7 0 15 5 18 6 4 10 14 10 23 0
15 -2 15 -10 2 -6 -9 -10 -10 -10 -3 0 6 5 15 10 18 6 3 10 11 10 16 0 6 -4 8
-8 5 -5 -3 -9 1 -9 9 0 8 4 12 9 9 8 -5 4 26 -7 63 -2 7 0 15 5 18 6 4 10 14
10 23 0 15 -2 15 -10 2 -6 -9 -10 -10 -10 -3 0 6 5 15 10 18 6 3 10 11 10 16
0 6 -4 8 -8 5 -5 -3 -9 1 -9 9 0 8 4 12 9 9 8 -5 4 26 -7 63 -2 7 0 15 5 18 5
3 8 22 7 42 -3 32 -7 38 -37 48 -19 7 -45 11 -57 10 -13 -1 -23 1 -23 5 0 4
-48 8 -107 9 -59 1 -110 4 -113 6 -3 2 -12 -4 -18 -13z m170 -128 c21 1 39 -2
41 -8 2 -6 3 -183 2 -393 0 -252 3 -383 10 -383 7 0 6 -3 0 -8 -6 -4 -11 -29
-11 -57 0 -27 5 -53 11 -57 7 -5 7 -8 0 -8 -14 0 -14 -110 0 -110 7 0 7 -3 0
-8 -13 -9 -14 -112 -2 -112 6 0 6 -5 0 -12 -5 -7 -9 -125 -9 -265 1 -232 0
-252 -17 -257 -9 -2 -15 0 -11 5 8 13 -10 11 -25 -4 -11 -10 -12 -9 -6 1 8 16
-26 13 -37 -3 -5 -6 -8 -5 -8 3 0 12 -38 11 -59 -2 -5 -4 -13 -2 -16 4 -5 8
-11 7 -21 -1 -8 -6 -14 -7 -14 -2 0 5 -7 10 -15 10 -8 0 -15 -3 -15 -7 0 -3
-19 -6 -42 -5 -24 0 -60 -2 -80 -6 -22 -4 -42 -2 -49 5 -9 8 -10 8 -6 0 4 -7
0 -14 -8 -18 -10 -3 -15 1 -15 12 0 15 -2 15 -10 2 -5 -9 -25 -16 -47 -16 -67
-2 -113 -8 -113 -14 0 -3 -12 -6 -27 -7 -38 -1 -75 -8 -96 -17 -9 -5 -30 -6
-47 -4 -16 2 -28 0 -27 -5 1 -6 -16 -11 -38 -11 -22 -1 -43 -6 -47 -11 -4 -6
-25 -10 -47 -8 -25 1 -41 -3 -41 -9 0 -6 -3 -8 -7 -5 -3 4 -12 2 -20 -4 -10
-9 -13 -8 -13 1 0 10 -3 10 -15 0 -8 -6 -18 -9 -24 -6 -5 3 -11 2 -13 -4 -2
-6 -22 -11 -44 -13 -23 -1 -40 -5 -38 -9 2 -4 0 -9 -6 -13 -5 -3 -10 -1 -10 5
0 6 -4 8 -10 5 -6 -4 -8 6 -6 25 2 17 -1 33 -5 36 -5 3 -6 11 -2 17 10 16 10
137 1 144 -5 2 -5 10 -1 16 10 16 10 778 0 784 -4 2 -4 10 0 16 10 17 11 129
0 144 -4 6 -4 13 0 16 4 3 8 100 8 216 0 116 0 211 0 211 0 0 24 9 53 19 29
11 50 15 46 10 -3 -5 11 0 30 11 21 11 36 15 36 9 0 -8 4 -8 13 -1 6 5 21 12
32 14 11 1 23 8 27 13 5 6 8 5 8 -4 0 -11 3 -11 17 0 9 8 23 14 32 14 9 0 22
4 29 8 7 5 12 3 12 -5 1 -9 4 -8 10 3 6 11 21 16 44 14 19 -1 33 2 30 7 -3 4
3 9 13 9 10 1 29 2 43 3 14 1 31 5 38 9 6 5 17 5 22 2 6 -3 10 -1 10 5 0 7 7
9 16 6 9 -4 28 1 42 10 13 9 21 11 17 4 -5 -9 -1 -10 15 -5 12 4 28 8 34 9 6
1 17 6 25 10 10 7 12 6 6 -4 -6 -10 -4 -11 6 -4 8 4 21 10 29 11 28 6 105 14
123 14 9 0 16 3 13 7 -2 4 41 7 96 7 55 0 105 3 111 7 6 4 16 3 22 -1 5 -5 27
-8 47 -7z"/>
<path d="M1373 2862 c-7 -4 -28 -7 -48 -7 -19 1 -35 -2 -35 -6 0 -5 -7 -6 -15
-3 -8 4 -23 3 -32 -1 -10 -4 -45 -9 -78 -11 -85 -7 -85 -7 -85 -14 0 -4 -11
-6 -25 -5 -14 2 -27 -1 -30 -5 -3 -5 -13 -6 -22 -3 -9 4 -14 2 -11 -3 4 -5
-13 -9 -38 -9 -24 1 -44 -2 -44 -6 0 -4 -7 -10 -16 -13 -10 -4 -13 -2 -8 6 5
7 3 8 -7 2 -8 -4 -23 -10 -33 -11 -11 -2 -26 -9 -35 -16 -12 -10 -13 -9 -6 3
8 13 7 13 -8 1 -9 -7 -17 -10 -17 -6 0 4 -6 3 -12 -3 -7 -6 -16 -11 -21 -11
-42 -4 -87 -15 -87 -21 0 -4 -8 -7 -17 -7 -40 0 -54 -3 -49 -11 3 -5 -5 -8
-17 -8 -20 1 -22 -4 -21 -51 1 -33 -3 -50 -9 -46 -6 4 -7 1 -2 -7 12 -19 13
-240 1 -233 -5 4 -6 1 -1 -7 12 -19 13 -240 1 -233 -5 4 -6 1 -1 -8 12 -18 13
-719 2 -712 -5 3 -4 -4 2 -15 14 -27 14 -35 -1 -26 -7 4 -4 -2 7 -13 11 -11
25 -17 30 -14 6 4 17 7 25 6 8 0 17 2 20 6 4 6 54 15 108 21 6 1 12 4 12 8 0
3 17 5 38 4 20 0 53 5 74 12 20 7 38 10 41 7 3 -2 15 1 27 7 18 10 21 9 15 -1
-6 -8 -4 -10 6 -3 16 10 27 12 84 18 22 2 44 4 48 5 5 1 5 7 1 14 -6 10 -4 10
7 0 14 -14 33 -18 25 -5 -2 4 13 7 35 6 22 0 42 3 45 8 3 4 14 4 24 -2 13 -7
21 -7 26 1 4 8 9 7 15 -2 6 -9 9 -10 9 -2 0 12 24 12 36 0 4 -3 14 -2 24 3 9
5 46 10 83 12 53 2 67 6 71 20 2 10 0 21 -5 24 -5 3 -5 12 1 23 6 12 5 22 -1
28 -8 8 -7 17 0 32 8 15 8 21 1 21 -7 0 -7 6 0 21 8 14 8 24 1 32 -6 8 -6 18
-1 27 5 9 5 19 -1 27 -7 8 -7 18 0 32 7 12 8 29 2 43 -4 13 -5 32 -1 43 4 11
4 29 1 40 -4 11 -4 36 -1 55 3 19 2 45 -2 58 -5 14 -4 32 3 43 7 14 7 24 0 32
-6 8 -6 18 -1 27 5 9 5 19 -1 27 -6 7 -7 17 -3 24 10 17 11 60 2 87 -4 12 -3
22 2 22 6 0 6 9 1 23 -5 12 -5 31 -1 42 4 11 4 29 1 40 -8 25 -6 68 3 84 4 7
3 17 -3 24 -6 8 -6 18 -1 27 5 9 5 19 -1 27 -7 8 -7 18 1 32 7 15 7 21 0 21
-7 0 -7 6 0 21 8 15 8 24 0 34 -8 9 -8 15 0 20 7 4 7 12 0 26 -8 13 -7 25 0
39 8 14 8 20 0 20 -7 0 -7 6 0 21 8 15 8 24 0 34 -8 9 -8 15 0 20 6 4 7 13 1
23 -4 9 -7 24 -6 32 2 12 -6 16 -29 15 -18 -1 -37 -5 -43 -8 -6 -4 -13 -3 -15
3 -1 5 -8 6 -15 2z m-43 -168 c0 -8 -6 -14 -12 -14 -10 0 -9 -3 1 -9 7 -5 11
-15 9 -22 -3 -8 -1 -22 4 -33 7 -12 7 -16 0 -12 -11 7 -8 -76 3 -95 5 -8 4
-10 -3 -5 -9 5 -10 -3 -6 -28 4 -26 2 -36 -8 -36 -10 0 -10 -2 1 -9 7 -5 11
-15 9 -22 -3 -8 -1 -22 4 -33 7 -12 7 -16 0 -12 -11 7 -8 -76 3 -95 5 -8 4
-10 -3 -5 -9 5 -10 -3 -6 -28 4 -26 2 -36 -8 -36 -10 0 -10 -2 1 -9 7 -5 11
-15 9 -22 -3 -8 -1 -22 4 -33 7 -12 7 -16 0 -12 -11 7 -8 -76 3 -95 5 -8 4
-10 -3 -5 -9 5 -10 -3 -6 -28 4 -26 2 -36 -8 -36 -10 0 -10 -2 1 -9 7 -5 11
-15 9 -22 -3 -8 -1 -22 4 -33 7 -12 7 -16 0 -12 -11 7 -8 -76 3 -95 5 -8 4
-10 -3 -5 -9 5 -10 -3 -6 -28 4 -26 2 -36 -8 -36 -10 0 -10 -2 1 -9 7 -5 11
-15 9 -22 -3 -8 -1 -22 4 -33 7 -12 7 -16 0 -12 -6 3 -9 -7 -8 -26 1 -29 -2
-32 -29 -34 -16 0 -39 -5 -49 -9 -14 -6 -17 -5 -11 4 6 10 3 11 -11 3 -11 -5
-41 -10 -69 -11 -27 -1 -53 -7 -57 -14 -5 -7 -8 -8 -8 -1 0 6 -7 11 -15 11 -8
0 -15 -3 -15 -6 0 -3 -19 -7 -43 -8 -50 -3 -69 -7 -82 -15 -5 -3 -27 -5 -48
-4 -25 1 -37 -3 -37 -13 0 -11 -3 -11 -15 -1 -8 7 -15 8 -15 3 0 -5 -10 -9
-22 -10 -13 -1 -34 -4 -48 -8 -50 -13 -76 -10 -84 11 -4 9 -2 13 5 8 8 -4 9 1
4 15 -4 14 -2 21 7 21 9 0 10 2 1 8 -6 4 -10 23 -9 42 1 19 -2 45 -6 58 -5 16
-5 21 3 16 8 -4 9 0 4 15 -4 14 -2 21 7 21 9 0 10 2 1 8 -6 4 -10 23 -9 42 1
19 -2 45 -6 58 -5 16 -5 21 3 16 8 -4 9 0 4 15 -4 14 -2 21 7 21 9 0 10 2 1 8
-6 4 -10 23 -9 42 1 19 -2 45 -6 58 -5 16 -5 21 3 16 8 -4 9 0 4 15 -4 14 -2
21 7 21 10 0 10 2 0 8 -7 5 -11 19 -8 33 2 13 0 31 -5 40 -4 8 -4 21 1 29 5 8
4 22 -2 33 -8 15 -7 18 3 12 9 -6 11 -3 6 9 -4 10 -2 26 3 36 8 15 6 21 -7 29
-10 6 -13 11 -8 11 11 0 13 70 2 86 -3 6 -2 16 3 24 5 8 4 22 -2 33 -5 11 -6
17 -1 14 5 -4 10 7 10 23 0 17 -5 27 -10 23 -6 -4 -7 -1 -1 8 11 18 13 90 2
83 -21 -13 -5 6 18 21 15 9 23 11 19 4 -6 -8 -4 -10 6 -3 8 4 19 9 24 10 6 1
24 5 40 9 17 3 36 7 43 7 6 1 12 6 12 11 0 6 3 7 7 4 3 -4 13 -1 21 6 10 7 13
8 9 1 -4 -8 7 -7 34 2 22 8 45 11 51 8 6 -4 13 -1 17 5 4 6 24 12 44 13 20 1
34 4 32 7 -2 4 4 7 13 7 23 1 100 12 137 19 17 4 49 7 72 8 26 1 39 5 35 12
-3 5 2 4 11 -4 9 -7 17 -20 17 -27z m0 -1238 c0 -3 -4 -8 -10 -11 -5 -3 -10
-1 -10 4 0 6 5 11 10 11 6 0 10 -2 10 -4z"/>
<path d="M1116 2562 c-3 -6 -21 -9 -40 -8 -19 1 -32 -3 -28 -8 3 -5 -2 -7 -10
-3 -9 3 -21 0 -27 -6 -6 -6 -11 -8 -11 -4 0 3 -11 2 -24 -3 -16 -6 -27 -5 -35
3 -9 9 -11 8 -6 -4 5 -13 1 -16 -19 -14 -14 2 -26 -1 -26 -7 0 -6 -7 -8 -15
-4 -8 3 -15 0 -15 -7 0 -9 -2 -9 -8 0 -5 8 -12 8 -25 -2 -21 -15 -28 -72 -12
-94 7 -11 7 -13 -3 -7 -9 6 -11 1 -8 -20 3 -15 0 -35 -7 -43 -8 -10 -9 -13 0
-8 8 5 11 -6 9 -38 -1 -27 2 -45 8 -45 6 0 4 -5 -4 -10 -8 -5 -10 -10 -5 -10
6 0 3 -5 -5 -10 -8 -5 -10 -10 -4 -10 13 0 13 -249 0 -269 -6 -9 -5 -12 1 -8
6 4 10 -15 10 -48 0 -33 -4 -52 -10 -48 -6 4 -7 1 -1 -8 5 -8 10 -43 10 -79 1
-36 2 -70 3 -77 1 -13 48 -12 70 1 10 7 12 5 6 -3 -6 -10 -3 -11 14 -2 12 7
26 9 31 6 6 -3 10 -2 10 2 0 5 15 8 33 8 17 -1 38 3 46 9 12 9 13 8 6 -3 -6
-11 -5 -12 6 -5 18 11 31 13 103 17 35 2 61 8 64 15 2 7 8 9 13 6 10 -6 5 37
-5 55 -3 5 1 12 10 15 14 5 14 9 3 22 -14 17 -19 63 -7 70 4 3 8 10 8 15 0 6
-5 7 -11 3 -8 -4 -8 -1 -1 13 7 12 7 25 1 36 -7 12 -6 17 2 17 8 0 7 5 -2 17
-12 14 -12 15 -1 9 11 -7 12 -4 3 12 -8 16 -7 21 5 26 14 5 14 9 3 22 -14 17
-19 63 -7 70 4 3 8 10 8 15 0 6 -5 7 -11 3 -8 -4 -8 -1 -1 13 7 12 7 25 1 36
-7 12 -6 17 2 17 8 0 7 5 -2 17 -12 14 -12 15 -1 9 11 -7 12 -4 3 12 -8 16 -7
21 5 26 14 5 14 9 3 22 -14 17 -19 63 -7 70 4 3 8 10 8 15 0 6 -5 7 -11 3 -8
-4 -8 -1 -1 13 7 12 7 25 1 36 -7 12 -6 17 3 17 9 0 9 3 1 11 -7 7 -8 20 -3
34 5 14 4 27 -3 34 -8 8 -8 11 2 11 11 0 11 3 0 17 -12 14 -12 16 0 8 10 -5
12 -4 7 3 -9 15 -53 16 -61 2 -5 -8 -11 -8 -20 0 -8 7 -16 7 -19 2z m-41 -417
c0 -173 -3 -265 -10 -265 -5 0 -4 -4 4 -9 8 -5 11 -16 6 -30 -3 -12 -11 -19
-16 -16 -5 4 -9 2 -9 -3 0 -5 -12 -8 -27 -7 -16 1 -34 -2 -40 -8 -9 -6 -13 -6
-13 1 0 6 -6 9 -14 6 -11 -4 -13 43 -13 285 0 234 3 291 14 292 37 4 50 7 73
16 14 6 30 9 35 7 6 -3 10 -102 10 -269z"/>
<path d="M2490 3130 c0 -3 -30 -5 -66 -5 -36 0 -68 -3 -70 -7 -3 -4 -13 -5
-24 -3 -11 2 -20 -1 -20 -7 0 -5 -7 -7 -16 -4 -8 3 -12 2 -9 -4 3 -6 1 -10 -4
-10 -6 0 -11 -11 -11 -25 0 -14 -6 -25 -12 -26 -7 0 -4 -4 7 -9 11 -5 15 -9 9
-9 -8 -1 -9 -12 -4 -36 4 -20 4 -38 -1 -41 -5 -3 -9 -10 -9 -15 0 -6 4 -8 8
-5 5 3 9 -1 9 -9 0 -8 -4 -12 -9 -9 -8 5 -4 -26 7 -63 2 -7 0 -15 -5 -18 -6
-4 -10 -11 -10 -16 0 -6 4 -8 8 -5 5 3 9 -1 9 -9 0 -8 -4 -12 -9 -9 -7 4 -2
-41 8 -74 2 -7 -1 -10 -7 -7 -9 6 -6 -21 6 -62 2 -7 0 -15 -5 -18 -6 -4 -10
-11 -10 -16 0 -6 4 -8 8 -5 5 3 9 -1 9 -9 0 -8 -4 -12 -9 -9 -8 5 -4 -26 7
-63 2 -7 0 -15 -5 -18 -6 -4 -10 -11 -10 -16 0 -6 4 -8 8 -5 5 3 9 -1 9 -9 0
-8 -4 -12 -9 -9 -7 4 -2 -41 8 -74 2 -7 -1 -10 -7 -7 -9 6 -6 -21 6 -62 2 -7
0 -15 -5 -18 -6 -4 -10 -11 -10 -16 0 -6 4 -8 8 -5 5 3 9 -1 9 -9 0 -8 -4 -12
-9 -9 -8 5 -4 -26 7 -63 2 -7 0 -15 -5 -18 -6 -4 -10 -11 -10 -16 0 -6 4 -8 8
-5 5 3 9 -1 9 -9 0 -8 -4 -12 -9 -9 -7 4 -2 -41 8 -74 2 -7 -1 -10 -7 -7 -9 6
-6 -21 6 -62 2 -7 0 -15 -5 -18 -6 -4 -10 -11 -10 -16 0 -6 4 -8 8 -5 5 3 9
-1 9 -9 0 -8 -4 -12 -9 -9 -8 5 -4 -26 7 -63 2 -7 0 -15 -5 -18 -6 -4 -10 -11
-10 -16 0 -6 4 -8 8 -5 5 3 9 -1 9 -9 0 -8 -4 -12 -9 -9 -7 4 -2 -41 8 -74 2
-7 -1 -10 -7 -7 -9 6 -6 -21 6 -62 2 -7 0 -15 -5 -18 -6 -4 -10 -11 -10 -16 0
-6 4 -8 8 -5 5 3 9 -1 9 -9 0 -8 -4 -12 -9 -9 -8 5 -4 -26 7 -63 2 -7 0 -15
-5 -18 -6 -4 -10 -11 -10 -16 0 -6 4 -8 8 -5 5 3 9 -1 9 -9 0 -8 -4 -12 -8 -9
-4 2 -5 -12 -2 -32 5 -30 3 -36 -8 -29 -8 5 -6 -1 4 -12 10 -12 14 -23 10 -26
-10 -6 -10 -48 0 -64 4 -7 4 -14 -1 -17 -9 -5 -9 -47 1 -63 4 -7 3 -14 -2 -18
-7 -4 -7 -15 -1 -30 8 -21 6 -25 -8 -26 -14 0 -14 -2 3 -8 11 -5 38 -7 60 -4
22 2 70 5 107 6 38 1 68 7 68 12 0 6 5 3 10 -5 9 -13 10 -13 10 0 1 11 4 10
15 -4 8 -11 15 -14 15 -8 0 7 9 12 21 12 13 0 18 -4 13 -12 -6 -10 -4 -10 7
-2 20 15 61 16 53 1 -5 -9 -4 -9 6 0 9 9 19 9 33 2 14 -8 18 -8 13 0 -4 6 -2
11 3 11 6 0 11 -3 11 -8 0 -4 17 -8 38 -9 87 -2 122 -8 122 -17 0 -6 5 -4 10
4 5 8 10 10 10 4 0 -6 10 -11 23 -11 65 -1 88 -4 83 -11 -2 -4 4 -8 14 -8 10
0 16 4 13 9 -3 5 4 4 15 -2 11 -6 34 -12 51 -13 17 -1 31 -5 31 -9 0 -3 16 -5
35 -4 19 1 35 -2 35 -7 0 -5 10 -3 23 3 19 10 20 10 10 -2 -9 -12 -3 -14 38
-16 28 -1 56 -7 64 -13 8 -7 15 -10 15 -7 0 3 17 1 38 -4 20 -6 51 -12 67 -15
17 -3 36 -11 44 -17 12 -10 13 -9 6 3 -7 13 -6 13 7 2 9 -7 22 -12 30 -11 7 2
24 -3 37 -10 19 -11 22 -11 16 1 -6 10 -5 11 6 1 7 -7 23 -13 36 -13 13 0 23
-4 23 -8 0 -5 16 -9 35 -9 33 0 34 2 30 29 -4 18 -1 28 7 28 9 0 10 3 2 8 -6
4 -10 30 -9 57 1 28 -3 56 -9 64 -7 9 -7 13 -1 9 13 -8 14 130 1 151 -7 10 -6
12 4 6 10 -6 12 -4 7 8 -4 10 -1 17 6 17 9 0 9 2 1 8 -13 8 -13 70 0 91 6 9 5
12 -2 7 -7 -4 -10 9 -8 41 2 27 -2 54 -8 62 -8 11 -8 13 0 8 7 -4 14 0 18 8 3
8 1 17 -3 20 -5 3 -7 43 -6 90 2 59 0 83 -7 79 -7 -5 -8 -2 -3 7 15 23 17 82
4 73 -8 -5 -9 -3 -3 7 4 8 9 25 9 39 0 14 5 31 9 39 6 9 5 12 -2 7 -7 -4 -10
9 -8 41 2 27 -2 54 -8 62 -9 12 -8 13 3 6 11 -6 13 -4 8 8 -4 10 -1 17 6 17 9
0 9 2 1 8 -7 4 -10 36 -9 90 2 56 0 80 -7 75 -7 -4 -8 -1 -3 8 15 23 17 82 4
73 -8 -5 -9 -3 -3 7 4 8 9 25 9 39 0 14 5 31 9 39 6 9 5 12 -2 7 -7 -4 -10 9
-8 41 2 27 -2 54 -8 62 -9 12 -8 13 3 6 11 -6 13 -4 8 8 -4 10 -1 17 6 17 8 0
9 3 1 8 -13 8 -12 150 0 171 6 9 5 12 -2 7 -7 -4 -10 9 -8 41 2 27 -2 54 -8
62 -8 11 -8 13 2 7 7 -4 12 -1 12 8 0 9 -6 16 -14 16 -8 0 -16 4 -18 10 -1 5
-20 10 -40 12 -21 1 -38 6 -38 11 0 4 -4 5 -10 2 -5 -3 -10 -1 -10 5 0 6 -5 8
-10 5 -6 -4 -18 -1 -27 7 -11 8 -14 9 -10 1 5 -8 -1 -8 -19 2 -15 8 -31 12
-36 9 -4 -3 -8 0 -8 6 0 6 -4 9 -9 6 -5 -4 -12 0 -14 6 -4 9 -6 9 -6 1 -1 -11
-41 -6 -41 6 0 4 -12 8 -27 9 -15 1 -30 7 -34 13 -5 8 -9 8 -14 0 -5 -9 -10
-9 -21 0 -7 6 -33 12 -58 13 -24 0 -42 4 -39 9 2 4 -5 8 -16 8 -29 2 -34 3
-48 12 -8 5 -13 3 -13 -5 0 -11 -2 -11 -9 0 -4 7 -21 15 -37 17 -16 2 -29 4
-29 5 0 1 -9 3 -20 5 -27 4 -82 14 -125 24 -20 4 -43 7 -53 5 -9 -1 -17 1 -17
6 0 5 -8 7 -17 5 -10 -1 -24 2 -30 8 -9 6 -13 6 -13 -2 0 -7 -5 -9 -12 -5 -6
4 -27 8 -47 10 -20 1 -36 3 -36 4 0 7 -36 6 -41 -2 -3 -5 -14 -2 -25 8 -10 9
-19 13 -19 8 0 -6 -25 -7 -60 -4 -33 3 -60 3 -60 0z m-7 -136 c15 -1 27 3 27
8 0 5 5 6 12 2 6 -4 41 -8 78 -9 36 -1 72 -5 78 -9 7 -4 12 -2 12 5 0 8 4 8
13 2 6 -6 20 -9 29 -8 10 2 20 -1 24 -6 3 -5 14 -4 26 2 16 9 19 8 13 -2 -6
-9 -2 -11 13 -7 12 4 25 2 28 -4 4 -6 10 -5 15 3 7 12 9 12 9 0 0 -7 6 -11 15
-8 8 4 17 2 19 -2 3 -5 16 -8 28 -7 13 1 30 -4 40 -12 12 -10 18 -11 24 -1 5
8 3 10 -6 4 -9 -6 -11 -4 -6 4 6 9 13 8 27 -5 10 -9 19 -14 19 -11 0 3 15 1
33 -4 17 -5 54 -12 82 -15 27 -3 52 -10 56 -15 3 -6 9 -10 13 -10 26 4 56 0
52 -7 -2 -4 17 -7 44 -7 27 0 48 -4 47 -9 -1 -5 14 -11 33 -13 19 -3 37 -8 40
-11 3 -4 12 -8 20 -9 30 -3 59 -12 81 -23 14 -8 19 -8 15 -1 -11 18 5 13 21
-6 8 -10 11 -12 8 -5 -6 11 -3 11 12 2 18 -11 19 -27 18 -257 0 -135 3 -247 8
-250 4 -2 4 -10 0 -16 -11 -17 -11 -449 -1 -464 5 -6 5 -13 1 -16 -4 -3 -8
-149 -8 -326 0 -189 -3 -317 -8 -312 -5 5 -16 7 -23 4 -8 -3 -14 -1 -14 4 0 5
-10 9 -22 8 -13 -1 -32 3 -43 10 -11 6 -30 11 -42 10 -13 -1 -23 1 -23 6 0 4
-8 8 -17 8 -17 0 -58 8 -58 11 0 2 -25 5 -95 13 -14 2 -31 7 -38 11 -7 4 -16
5 -21 1 -5 -3 -13 -1 -16 5 -4 6 -15 8 -26 5 -10 -4 -19 -2 -19 3 0 5 -6 9
-12 10 -36 2 -103 11 -103 13 0 3 -51 10 -95 11 -25 1 -48 7 -52 12 -4 6 -12
5 -22 -3 -14 -12 -19 -9 -18 9 0 3 -40 5 -89 5 -55 -1 -89 3 -89 10 0 5 -5 3
-10 -5 -5 -8 -10 -10 -10 -4 0 6 -7 11 -15 11 -8 0 -15 -5 -15 -11 0 -7 -3 -7
-8 -1 -10 14 -52 15 -52 1 0 -6 -4 -5 -9 3 -8 13 -12 13 -27 0 -11 -9 -15 -9
-10 -1 8 14 -19 12 -43 -2 -10 -6 -12 -5 -7 2 9 15 -6 16 -21 1 -15 -15 -19
17 -18 154 0 74 -3 117 -10 117 -7 0 -7 3 0 8 12 8 14 97 2 108 -3 4 -3 12 0
18 12 18 10 180 -2 188 -7 5 -7 8 1 8 11 0 13 95 1 106 -3 4 -3 12 0 18 12 18
10 180 -2 188 -7 5 -7 8 1 8 11 0 13 95 1 106 -3 4 -3 12 0 18 12 18 10 180
-2 188 -7 5 -7 8 1 8 11 0 13 95 1 106 -3 4 -3 12 0 18 12 18 10 180 -2 188
-7 5 -7 8 1 8 6 0 10 21 9 55 -2 47 1 55 16 55 11 0 19 6 19 13 0 7 3 8 8 2 4
-6 19 -11 35 -11z"/>
<path d="M2524 2862 c2 -1 0 -17 -4 -35 -4 -18 -4 -41 0 -52 4 -11 4 -29 0
-41 -5 -11 -5 -27 0 -34 4 -7 4 -24 0 -39 -4 -14 -4 -35 0 -46 4 -11 4 -29 0
-40 -4 -11 -4 -29 0 -40 4 -11 4 -29 0 -40 -4 -11 -4 -29 0 -40 4 -11 4 -29 0
-40 -4 -11 -4 -29 0 -40 4 -11 4 -29 0 -40 -4 -11 -4 -29 0 -40 4 -11 4 -29 0
-40 -4 -11 -4 -29 0 -40 4 -11 4 -29 0 -40 -4 -11 -4 -29 0 -40 4 -11 4 -29 0
-40 -4 -11 -4 -29 0 -40 4 -11 4 -29 0 -40 -4 -11 -4 -29 0 -40 4 -11 4 -29 0
-40 -4 -11 -4 -29 0 -40 4 -11 4 -29 0 -40 -4 -11 -4 -29 0 -40 4 -11 4 -29 0
-40 -4 -11 -4 -29 0 -40 4 -11 4 -29 0 -40 -4 -11 -4 -29 0 -40 4 -11 4 -29 0
-40 -4 -11 -4 -29 0 -40 4 -11 4 -29 0 -40 -4 -11 -4 -30 1 -42 6 -16 5 -23
-3 -23 -6 0 -8 -3 -5 -6 8 -9 45 -13 135 -16 42 -1 72 -6 72 -12 0 -6 5 -4 10
4 9 13 11 13 20 0 9 -13 10 -13 10 0 0 9 3 11 8 5 4 -6 30 -11 57 -12 73 -2
115 -7 115 -14 0 -3 19 -6 43 -8 67 -3 77 -5 77 -11 0 -4 12 -7 28 -7 38 -1
84 -9 104 -18 9 -4 21 -4 27 -1 5 3 17 -1 25 -10 9 -8 16 -10 16 -4 0 7 6 8
18 2 9 -5 33 -9 52 -11 19 -1 37 -5 40 -10 3 -4 17 -7 33 -7 15 1 27 -3 27 -8
0 -15 14 3 16 21 2 10 -3 24 -9 32 -7 8 -7 12 -1 8 7 -4 10 82 10 288 -1 173
3 291 8 288 5 -4 6 0 1 7 -12 19 -13 240 -2 233 5 -3 5 3 0 13 -5 11 -9 123
-8 250 1 203 -1 231 -15 229 -8 -1 -17 1 -20 6 -3 4 -19 10 -35 13 -17 2 -31
5 -32 6 -2 2 -7 3 -12 4 -5 0 -12 4 -16 8 -4 4 -13 4 -21 1 -8 -3 -14 0 -14 7
0 10 -3 10 -14 1 -10 -8 -15 -9 -18 -1 -2 6 -14 12 -28 12 -14 1 -27 5 -30 9
-3 4 -23 9 -45 10 -22 2 -42 7 -45 10 -3 4 -18 8 -35 10 -16 2 -36 8 -44 14
-11 8 -13 7 -7 -4 7 -10 3 -10 -15 1 -13 9 -40 15 -61 14 -20 -1 -34 2 -31 7
4 7 -2 8 -84 11 -24 0 -43 5 -43 10 0 5 -6 4 -13 -3 -9 -7 -17 -7 -23 -1 -6 6
-28 11 -50 13 -21 1 -42 6 -46 12 -5 6 -8 5 -8 -2 0 -9 -7 -10 -23 -4 -14 6
-30 6 -38 0 -8 -5 -18 -9 -24 -9 -5 0 -3 5 5 10 12 8 9 9 -12 8 -15 -1 -26 -4
-24 -6z m214 -148 c17 0 32 -2 32 -6 0 -5 5 -8 11 -8 5 0 7 5 3 12 -4 6 3 4
16 -5 18 -12 27 -14 37 -5 7 6 13 6 13 1 0 -6 14 -10 31 -11 17 0 38 -7 47
-14 12 -9 14 -10 8 0 -4 6 -2 12 3 12 6 0 11 -4 11 -8 0 -5 17 -9 37 -10 20
-1 40 -7 44 -13 4 -6 11 -9 16 -6 6 4 25 2 44 -4 19 -6 45 -12 59 -15 14 -3
34 -8 45 -11 25 -8 43 -12 73 -15 12 -1 22 -6 22 -11 0 -5 9 -7 19 -4 16 4 19
0 17 -27 -1 -17 2 -39 7 -50 6 -13 6 -16 -2 -12 -12 8 -11 -21 2 -41 5 -7 4
-13 0 -13 -11 0 -8 -114 3 -131 5 -8 3 -9 -6 -4 -9 5 -10 2 -5 -14 4 -14 2
-21 -7 -21 -10 0 -10 -2 0 -8 7 -5 11 -19 8 -33 -2 -13 0 -31 5 -40 4 -8 4
-21 -1 -29 -5 -8 -4 -22 2 -33 6 -12 6 -17 0 -13 -11 7 -8 -76 3 -95 5 -8 4
-10 -3 -5 -13 8 -12 -20 1 -41 5 -7 4 -13 0 -13 -11 0 -8 -114 3 -131 5 -8 3
-9 -6 -4 -9 5 -10 2 -5 -14 4 -14 2 -21 -7 -21 -10 0 -10 -2 0 -8 7 -5 11 -19
8 -33 -2 -13 0 -31 5 -40 4 -8 4 -21 -1 -29 -5 -8 -4 -22 2 -33 8 -15 7 -18
-3 -12 -9 6 -11 3 -6 -9 4 -10 2 -27 -5 -39 -10 -20 -10 -21 6 -8 15 13 16 12
9 -10 -5 -13 -8 -36 -7 -51 0 -16 -2 -29 -5 -29 -26 -6 -51 -5 -51 1 0 4 -7
11 -16 14 -8 3 -12 2 -9 -4 3 -6 2 -10 -4 -10 -5 0 -12 4 -16 9 -3 6 -14 8
-25 6 -11 -2 -20 -1 -20 3 0 4 -19 8 -41 10 -23 1 -51 7 -61 13 -11 6 -18 7
-15 2 3 -5 -3 -9 -13 -9 -10 0 -16 4 -14 8 3 4 -6 9 -20 9 -51 3 -61 4 -73 12
-8 5 -13 3 -13 -5 0 -9 -3 -9 -10 2 -5 8 -10 11 -10 7 0 -4 -9 -3 -20 3 -15 8
-20 8 -20 -2 0 -8 -3 -9 -8 -3 -4 6 -29 10 -57 10 -27 0 -54 2 -60 5 -17 8
-40 6 -47 -5 -5 -6 -8 -5 -8 3 0 7 -4 11 -8 8 -4 -2 -7 23 -7 57 0 34 -3 70
-8 81 -6 13 -6 16 2 11 13 -7 9 35 -5 56 -4 7 -3 9 3 6 12 -8 10 74 -2 94 -5
7 -4 10 2 6 11 -7 9 134 -2 153 -5 9 -4 11 4 6 12 -8 9 33 -5 55 -4 7 -3 9 3
6 12 -8 10 74 -2 94 -5 7 -4 10 2 6 11 -7 9 134 -2 153 -5 9 -4 11 4 6 12 -8
9 33 -5 55 -4 7 -3 9 3 6 12 -8 10 74 -2 94 -5 7 -4 10 2 6 6 -4 9 26 7 83 -2
56 1 90 7 90 6 0 7 6 3 13 -6 9 -4 9 7 1 8 -6 29 -11 47 -10z"/>
<path d="M2807 2572 c-10 -2 -16 -10 -13 -17 2 -7 -2 -16 -11 -19 -14 -6 -14
-8 1 -25 9 -9 14 -20 12 -22 -8 -10 -15 -69 -6 -64 8 5 5 -30 -6 -69 -4 -10
-2 -16 3 -13 5 4 10 0 10 -8 0 -8 -4 -12 -9 -9 -11 7 -10 -3 2 -27 8 -14 7
-19 -1 -19 -8 0 -7 -5 2 -17 12 -14 12 -15 1 -9 -11 7 -12 4 -3 -12 8 -16 7
-21 -6 -26 -14 -6 -14 -8 1 -25 9 -9 14 -20 12 -22 -8 -10 -15 -69 -6 -64 8 5
5 -30 -6 -69 -4 -10 -2 -16 3 -13 5 4 10 0 10 -8 0 -8 -4 -12 -9 -9 -11 7 -10
-3 2 -27 8 -14 7 -19 -1 -19 -8 0 -7 -5 2 -17 12 -14 12 -15 1 -9 -11 7 -12 4
-3 -12 8 -16 7 -21 -6 -26 -14 -6 -14 -8 1 -25 9 -9 14 -20 12 -22 -8 -10 -15
-69 -7 -64 8 4 7 -19 -2 -68 -1 -5 8 -13 21 -18 16 -6 21 -5 16 2 -4 8 0 7 15
0 12 -7 25 -10 30 -7 4 3 22 1 40 -4 22 -6 31 -5 32 3 0 7 4 3 9 -8 5 -11 9
-14 9 -6 1 11 4 11 18 0 15 -12 16 -12 8 1 -7 12 -6 13 6 4 8 -5 21 -10 29 -9
8 1 23 -2 32 -7 10 -5 18 -3 21 5 4 9 6 9 6 0 1 -7 8 -10 16 -7 8 4 15 2 15
-4 0 -5 20 -9 45 -8 39 1 48 5 44 19 -6 20 -5 38 2 43 6 3 6 11 1 17 -10 14
-10 27 1 45 5 6 4 12 -1 12 -12 0 -12 32 1 48 6 8 6 12 -2 12 -12 0 -10 27 2
48 5 6 4 12 -1 12 -12 0 -12 32 1 48 6 8 6 12 -2 12 -12 0 -10 27 2 48 5 6 4
12 -1 12 -12 0 -12 32 1 48 6 7 6 12 0 12 -5 0 -10 13 -10 30 0 16 5 27 10 23
6 -4 7 -1 2 8 -13 20 -13 49 -1 49 7 0 8 3 1 8 -14 10 -16 64 -2 55 6 -4 7 -1
2 8 -13 20 -13 49 -1 49 7 0 8 3 1 8 -14 10 -16 64 -2 55 6 -4 7 -1 2 8 -13
20 -13 49 -1 49 6 0 5 4 -2 9 -7 4 -12 12 -11 17 3 19 -1 31 -13 32 -19 1 -56
10 -130 30 -38 11 -68 15 -68 10 0 -5 -7 -2 -16 6 -8 9 -20 14 -25 11 -5 -3
-24 -2 -43 3 -24 7 -38 6 -47 -2 -9 -8 -10 -8 -6 0 8 14 -11 22 -36 16z m167
-174 c-6 -10 -5 -10 8 -1 8 7 18 9 22 5 8 -7 13 -8 41 -11 10 -1 15 -10 13
-29 -1 -15 1 -33 5 -39 4 -6 4 -14 0 -16 -5 -3 -6 -94 -3 -202 3 -108 3 -199
1 -201 -3 -3 -4 -27 -4 -55 1 -27 -2 -47 -7 -44 -5 3 -25 6 -44 7 -19 1 -33 5
-29 11 3 5 -4 4 -15 -2 -24 -13 -38 0 -28 25 3 8 2 13 -2 10 -10 -6 -9 115 1
131 4 6 4 14 -1 17 -10 6 -9 127 1 143 4 6 4 14 -1 17 -11 6 -9 67 2 85 6 9 5
12 -1 8 -13 -8 -11 116 2 125 6 5 5 8 -2 8 -7 0 -13 5 -13 10 0 6 14 10 31 10
21 0 28 -4 23 -12z"/>
</g>
</svg>
